<svg width="147" height="160" viewBox="0 0 147 160" fill="none" xmlns="http://www.w3.org/2000/svg">
<path d="M135.094 0.25H11.9062C10.4084 0.25 8.92513 0.54503 7.54126 1.11825C6.15739 1.69147 4.89998 2.53165 3.84081 3.59081C2.78164 4.64998 1.94147 5.9074 1.36825 7.29127C0.79503 8.67514 0.5 10.1584 0.5 11.6563V150.813C0.5 150.813 0.499998 159.938 9.625 159.938H137.375C146.5 159.938 146.5 150.813 146.5 150.813V11.6563C146.5 10.1584 146.205 8.67514 145.632 7.29127C145.059 5.9074 144.218 4.64998 143.159 3.59081C142.1 2.53165 140.843 1.69147 139.459 1.11825C138.075 0.54503 136.592 0.25 135.094 0.25Z" fill="#FF9F00"/>
</svg>
