<svg width="30" height="30" viewBox="0 0 30 30" fill="none" xmlns="http://www.w3.org/2000/svg">
<path d="M24.5455 18.75V3.75C24.5455 1.6875 23.3182 0 21.8182 0H2.72727C1.22727 0 0 1.6875 0 3.75V18.75C0 20.8125 1.22727 22.5 2.72727 22.5H21.8182C23.3182 22.5 24.5455 20.8125 24.5455 18.75ZM12.2727 16.875C10.0091 16.875 8.18182 14.3625 8.18182 11.25C8.18182 8.1375 10.0091 5.625 12.2727 5.625C14.5364 5.625 16.3636 8.1375 16.3636 11.25C16.3636 14.3625 14.5364 16.875 12.2727 16.875ZM30 5.625V26.25C30 28.3125 28.7727 30 27.2727 30H4.09091V26.25H27.2727V5.625H30Z" fill="#333333"/>
</svg>

