<svg width="157" height="25" viewBox="0 0 157 25" fill="none" xmlns="http://www.w3.org/2000/svg">
<path d="M8 24H0.818182V0.727272H8.31818C10.5758 0.727272 12.5076 1.19318 14.1136 2.125C15.7197 3.04924 16.9508 4.37879 17.8068 6.11364C18.6629 7.84091 19.0909 9.90909 19.0909 12.3182C19.0909 14.7424 18.6591 16.8295 17.7955 18.5795C16.9318 20.322 15.6742 21.6629 14.0227 22.6023C12.3712 23.5341 10.3636 24 8 24ZM3.63636 21.5H7.81818C9.74242 21.5 11.3371 21.1288 12.6023 20.3864C13.8674 19.6439 14.8106 18.5871 15.4318 17.2159C16.053 15.8447 16.3636 14.2121 16.3636 12.3182C16.3636 10.4394 16.0568 8.82197 15.4432 7.46591C14.8295 6.10227 13.9129 5.05682 12.6932 4.32954C11.4735 3.5947 9.95455 3.22727 8.13636 3.22727H3.63636V21.5ZM26.6364 0.727272V24H23.8182V0.727272H26.6364ZM48.196 8C47.946 7.23485 47.6165 6.54924 47.2074 5.94318C46.8059 5.32954 46.3248 4.80682 45.7642 4.375C45.2112 3.94318 44.5824 3.61364 43.8778 3.38636C43.1733 3.15909 42.4006 3.04545 41.5597 3.04545C40.1809 3.04545 38.9271 3.40151 37.7983 4.11364C36.6695 4.82576 35.7718 5.875 35.1051 7.26136C34.4384 8.64773 34.1051 10.3485 34.1051 12.3636C34.1051 14.3788 34.4422 16.0795 35.1165 17.4659C35.7907 18.8523 36.7036 19.9015 37.8551 20.6136C39.0066 21.3258 40.3021 21.6818 41.7415 21.6818C43.0748 21.6818 44.2491 21.3977 45.2642 20.8295C46.2869 20.2538 47.0824 19.4432 47.6506 18.3977C48.2263 17.3447 48.5142 16.1061 48.5142 14.6818L49.3778 14.8636H42.3778V12.3636H51.2415V14.8636C51.2415 16.7803 50.8324 18.447 50.0142 19.8636C49.2036 21.2803 48.0824 22.3788 46.6506 23.1591C45.2263 23.9318 43.59 24.3182 41.7415 24.3182C39.6809 24.3182 37.8703 23.8333 36.3097 22.8636C34.7566 21.8939 33.5445 20.5152 32.6733 18.7273C31.8097 16.9394 31.3778 14.8182 31.3778 12.3636C31.3778 10.5227 31.6241 8.86742 32.1165 7.39773C32.6165 5.92045 33.321 4.66288 34.2301 3.625C35.1392 2.58712 36.215 1.79167 37.4574 1.23864C38.6998 0.685605 40.0672 0.40909 41.5597 0.40909C42.7869 0.40909 43.9309 0.594696 44.9915 0.965908C46.0597 1.32954 47.0104 1.84848 47.8438 2.52273C48.6847 3.18939 49.3854 3.98864 49.946 4.92045C50.5066 5.8447 50.893 6.87121 51.1051 8H48.196ZM58.8864 0.727272V24H56.0682V0.727272H58.8864Z" fill="#333333"/>
<path d="M63.2642 3.22727V0.727272H80.7188V3.22727H73.4006V24H70.5824V3.22727H63.2642ZM85.0682 24V0.727272H99.1136V3.22727H87.8864V11.0909H98.3864V13.5909H87.8864V21.5H99.2955V24H85.0682ZM104.193 24V0.727272H107.011V12.2727H107.284L117.739 0.727272H121.42L111.648 11.2273L121.42 24H118.011L109.92 13.1818L107.011 16.4545V24H104.193ZM127.886 0.727272V24H125.068V0.727272H127.886ZM146.264 6.54545C146.128 5.39394 145.575 4.5 144.605 3.86364C143.635 3.22727 142.446 2.90909 141.037 2.90909C140.007 2.90909 139.105 3.07576 138.332 3.40909C137.567 3.74242 136.969 4.20076 136.537 4.78409C136.113 5.36742 135.901 6.0303 135.901 6.77273C135.901 7.39394 136.048 7.92803 136.344 8.375C136.647 8.81439 137.033 9.18182 137.503 9.47727C137.973 9.76515 138.465 10.0038 138.98 10.1932C139.495 10.375 139.969 10.5227 140.401 10.6364L142.764 11.2727C143.37 11.4318 144.045 11.6515 144.787 11.9318C145.537 12.2121 146.253 12.5947 146.935 13.0795C147.624 13.5568 148.192 14.1705 148.639 14.9205C149.086 15.6705 149.31 16.5909 149.31 17.6818C149.31 18.9394 148.98 20.0758 148.321 21.0909C147.67 22.1061 146.715 22.9129 145.457 23.5114C144.207 24.1098 142.688 24.4091 140.901 24.4091C139.234 24.4091 137.791 24.1402 136.571 23.6023C135.359 23.0644 134.404 22.3144 133.707 21.3523C133.018 20.3902 132.628 19.2727 132.537 18H135.446C135.522 18.8788 135.817 19.6061 136.332 20.1818C136.855 20.75 137.514 21.1742 138.31 21.4545C139.113 21.7273 139.976 21.8636 140.901 21.8636C141.976 21.8636 142.942 21.6894 143.798 21.3409C144.654 20.9848 145.332 20.4924 145.832 19.8636C146.332 19.2273 146.582 18.4848 146.582 17.6364C146.582 16.8636 146.366 16.2348 145.935 15.75C145.503 15.2652 144.935 14.8712 144.23 14.5682C143.526 14.2652 142.764 14 141.946 13.7727L139.082 12.9545C137.264 12.4318 135.825 11.6856 134.764 10.7159C133.704 9.74621 133.173 8.47727 133.173 6.90909C133.173 5.60606 133.526 4.4697 134.23 3.5C134.942 2.52273 135.897 1.76515 137.094 1.22727C138.298 0.681817 139.643 0.40909 141.128 0.40909C142.628 0.40909 143.961 0.678029 145.128 1.21591C146.295 1.74621 147.219 2.47348 147.901 3.39773C148.59 4.32197 148.954 5.37121 148.991 6.54545H146.264ZM156.761 0.727272V24H153.943V0.727272H156.761Z" fill="#FFD600"/>
</svg>

