<svg width="37" height="27" viewBox="0 0 37 27" fill="none" xmlns="http://www.w3.org/2000/svg">
<path d="M17.5 0C9.54545 0 2.75227 5.58205 0 13.4615C2.75227 21.341 9.54545 26.9231 17.5 26.9231C25.4545 26.9231 32.2477 21.341 35 13.4615C32.2477 5.58205 25.4545 0 17.5 0ZM17.5 22.4359C13.1091 22.4359 9.54545 18.4154 9.54545 13.4615C9.54545 8.50769 13.1091 4.48718 17.5 4.48718C21.8909 4.48718 25.4545 8.50769 25.4545 13.4615C25.4545 18.4154 21.8909 22.4359 17.5 22.4359ZM17.5 8.07692C14.8591 8.07692 12.7273 10.4821 12.7273 13.4615C12.7273 16.441 14.8591 18.8462 17.5 18.8462C20.1409 18.8462 22.2727 16.441 22.2727 13.4615C22.2727 10.4821 20.1409 8.07692 17.5 8.07692Z" fill="#333333"/>
<line x1="0.69216" y1="2.66924" x2="36.179" y2="21.1268" stroke="#333333" stroke-width="3"/>
</svg>

