<svg width="35" height="28" viewBox="0 0 35 28" fill="none" xmlns="http://www.w3.org/2000/svg">
<path d="M17.5 0.153839C9.54545 0.153839 2.75227 5.73589 0 13.6154C2.75227 21.4949 9.54545 27.0769 17.5 27.0769C25.4545 27.0769 32.2477 21.4949 35 13.6154C32.2477 5.73589 25.4545 0.153839 17.5 0.153839ZM17.5 22.5897C13.1091 22.5897 9.54545 18.5692 9.54545 13.6154C9.54545 8.66153 13.1091 4.64102 17.5 4.64102C21.8909 4.64102 25.4545 8.66153 25.4545 13.6154C25.4545 18.5692 21.8909 22.5897 17.5 22.5897ZM17.5 8.23076C14.8591 8.23076 12.7273 10.6359 12.7273 13.6154C12.7273 16.5949 14.8591 19 17.5 19C20.1409 19 22.2727 16.5949 22.2727 13.6154C22.2727 10.6359 20.1409 8.23076 17.5 8.23076Z" fill="#333333"/>
</svg>

