<svg width="25" height="25" viewBox="0 0 25 25" fill="none" xmlns="http://www.w3.org/2000/svg">
<path d="M25 9.375V3.125C25 1.39062 23.875 0 22.5 0H2.5C1.125 0 0.0125 1.39062 0.0125 3.125V9.375C1.3875 9.375 2.5 10.7812 2.5 12.5C2.5 14.2188 1.3875 15.625 0 15.625V21.875C0 23.5938 1.125 25 2.5 25H22.5C23.875 25 25 23.5938 25 21.875V15.625C23.625 15.625 22.5 14.2188 22.5 12.5C22.5 10.7812 23.625 9.375 25 9.375ZM13.75 21.0938H11.25V17.9688H13.75V21.0938ZM13.75 14.0625H11.25V10.9375H13.75V14.0625ZM13.75 7.03125H11.25V3.90625H13.75V7.03125Z" fill="#333333"/>
</svg>

