<svg width="219" height="219" viewBox="0 0 219 219" fill="none" xmlns="http://www.w3.org/2000/svg">
<path d="M73 164.25C73 163.04 72.5193 161.879 71.6637 161.024C70.808 160.168 69.6476 159.688 68.4375 159.688H50.1875C49.5883 159.688 48.9951 159.806 48.4415 160.035C47.888 160.264 47.385 160.6 46.9613 161.024C46.5377 161.447 46.2016 161.95 45.9723 162.504C45.743 163.058 45.625 163.651 45.625 164.25V191.625C45.625 192.224 45.743 192.817 45.9723 193.371C46.2016 193.925 46.5377 194.428 46.9613 194.851C47.385 195.275 47.888 195.611 48.4415 195.84C48.9951 196.069 49.5883 196.188 50.1875 196.188H68.4375C69.6476 196.188 70.808 195.707 71.6637 194.851C72.5193 193.996 73 192.835 73 191.625V164.25ZM173.375 164.25C173.375 163.651 173.257 163.058 173.028 162.504C172.798 161.95 172.462 161.447 172.039 161.024C171.615 160.6 171.112 160.264 170.559 160.035C170.005 159.806 169.412 159.688 168.812 159.688H150.563C149.352 159.688 148.192 160.168 147.336 161.024C146.481 161.879 146 163.04 146 164.25V191.625C146 192.835 146.481 193.996 147.336 194.851C148.192 195.707 149.352 196.188 150.563 196.188H168.812C169.412 196.188 170.005 196.069 170.559 195.84C171.112 195.611 171.615 195.275 172.039 194.851C172.462 194.428 172.798 193.925 173.028 193.371C173.257 192.817 173.375 192.224 173.375 191.625V164.25Z" fill="#333333"/>
<path d="M171.094 18.25H47.9062C46.4084 18.25 44.9251 18.545 43.5413 19.1182C42.1574 19.6915 40.9 20.5316 39.8408 21.5908C38.7816 22.65 37.9415 23.9074 37.3682 25.2913C36.795 26.6751 36.5 28.1584 36.5 29.6563V168.813C36.5 168.813 36.5 177.938 45.625 177.938H173.375C182.5 177.938 182.5 168.813 182.5 168.813V29.6563C182.5 28.1584 182.205 26.6751 181.632 25.2913C181.059 23.9074 180.218 22.65 179.159 21.5908C178.1 20.5316 176.843 19.6915 175.459 19.1182C174.075 18.545 172.592 18.25 171.094 18.25Z" fill="#FF9F00"/>
<path d="M45.625 102.652C45.625 104.467 44.904 106.207 43.6205 107.491C42.3371 108.774 40.5963 109.495 38.7812 109.495H34.2188C32.4037 109.495 30.6629 108.774 29.3795 107.491C28.096 106.207 27.375 104.467 27.375 102.652V88.9688C27.375 87.1537 28.096 85.4129 29.3795 84.1295C30.6629 82.846 32.4037 82.125 34.2188 82.125H38.7812C40.5963 82.125 42.3371 82.846 43.6205 84.1295C44.904 85.4129 45.625 87.1537 45.625 88.9688V102.652ZM191.625 102.652C191.625 104.467 190.904 106.207 189.621 107.491C188.337 108.774 186.596 109.495 184.781 109.495H180.219C178.404 109.495 176.663 108.774 175.379 107.491C174.096 106.207 173.375 104.467 173.375 102.652V88.9688C173.375 87.1537 174.096 85.4129 175.379 84.1295C176.663 82.846 178.404 82.125 180.219 82.125H184.781C186.596 82.125 188.337 82.846 189.621 84.1295C190.904 85.4129 191.625 87.1537 191.625 88.9688V102.652Z" fill="#FFC107"/>
<path d="M50.1875 148.281C50.1875 149.779 50.4825 151.262 51.0557 152.646C51.629 154.03 52.4691 155.288 53.5283 156.347C54.5875 157.406 55.8449 158.246 57.2288 158.819C58.6126 159.392 60.0959 159.688 61.5937 159.688C63.0916 159.688 64.5749 159.392 65.9587 158.819C67.3426 158.246 68.6 157.406 69.6592 156.347C70.7184 155.288 71.5585 154.03 72.1318 152.646C72.705 151.262 73 149.779 73 148.281C73 145.256 71.7983 142.355 69.6592 140.216C67.5201 138.077 64.6189 136.875 61.5937 136.875C58.5686 136.875 55.6674 138.077 53.5283 140.216C51.3892 142.355 50.1875 145.256 50.1875 148.281Z" fill="#FFC107"/>
<path d="M146 148.281C146 151.306 147.202 154.208 149.341 156.347C151.48 158.486 154.381 159.688 157.406 159.688C160.431 159.688 163.333 158.486 165.472 156.347C167.611 154.208 168.812 151.306 168.812 148.281C168.812 145.256 167.611 142.355 165.472 140.216C163.333 138.077 160.431 136.875 157.406 136.875C154.381 136.875 151.48 138.077 149.341 140.216C147.202 142.355 146 145.256 146 148.281Z" fill="#FFC107"/>
<path d="M166.531 27.375H52.4688C50.6537 27.375 48.9129 28.096 47.6295 29.3795C46.346 30.6629 45.625 32.4037 45.625 34.2187V107.219C45.625 108.717 45.92 110.2 46.4933 111.584C47.0665 112.968 47.9066 114.225 48.9658 115.284C50.025 116.343 51.2824 117.184 52.6663 117.757C54.0501 118.33 55.5334 118.625 57.0312 118.625H161.969C163.467 118.625 164.95 118.33 166.334 117.757C167.718 117.184 168.975 116.343 170.034 115.284C171.093 114.225 171.934 112.968 172.507 111.584C173.08 110.2 173.375 108.717 173.375 107.219V34.2187C173.375 32.4037 172.654 30.6629 171.371 29.3795C170.087 28.096 168.346 27.375 166.531 27.375Z" fill="#9FA8DA"/>
<path d="M173.375 54.75H45.625V34.2188C45.625 32.4037 46.346 30.6629 47.6295 29.3795C48.9129 28.096 50.6537 27.375 52.4688 27.375H166.531C168.346 27.375 170.087 28.096 171.371 29.3795C172.654 30.6629 173.375 32.4037 173.375 34.2188V54.75Z" fill="#333333"/>
<path d="M54.75 36.5H104.937V45.625H54.75V36.5ZM114.062 36.5H132.312V45.625H114.062V36.5Z" fill="#00BFA5"/>
<path d="M95.8125 118.625H59.3125V84.4062C59.3125 82.5912 60.0335 80.8504 61.317 79.567C62.6004 78.2835 64.3412 77.5625 66.1562 77.5625H88.9687C90.7838 77.5625 92.5246 78.2835 93.808 79.567C95.0915 80.8504 95.8125 82.5912 95.8125 84.4062V118.625ZM159.688 118.625H123.187V84.4062C123.187 82.5912 123.909 80.8504 125.192 79.567C126.475 78.2835 128.216 77.5625 130.031 77.5625H152.844C154.659 77.5625 156.4 78.2835 157.683 79.567C158.966 80.8504 159.688 82.5912 159.688 84.4062V118.625Z" fill="#333333" fill-opacity="0.8"/>
<path d="M129.712 118.625C128.498 117.27 127.75 115.719 127.75 114.062C127.75 109.117 134.019 104.937 141.437 104.937C148.856 104.937 155.125 109.117 155.125 114.062C155.125 115.719 154.377 117.27 153.163 118.625H163.438C163.917 117.16 164.25 115.65 164.25 114.062C164.25 103.998 154.016 95.8125 141.437 95.8125C128.859 95.8125 118.625 103.998 118.625 114.062C118.625 115.65 118.958 117.16 119.437 118.625H129.712Z" fill="#333333"/>
</svg>

